# xmcd
#
# Track frame offsets: 
#        150
#        10429
#        18378
#        31031
#        44109
#        64562
#        76102
#        88558
#        109663
#        118826
#        130854
#        139216
#        162904
#        171733
#        187917
#        195777
#        209423
#        233660
#        241665
#
# Disc length: 3482 seconds
#
# Revision: 5
# Processed by: cddbd v1.5.2PL0 Copyright (c) Steve Scherf et al.
# Submitted via: ExactAudioCopy v1.3
#
DISCID=f50d9813
DTITLE=Musica ad Rhenum - Paris Quartets Vol2
DYEAR=2008
DGENRE=Baroque
TTITLE0=Quartet No.1 in D TWV43 D3 - 1. Prelude: Vivement
TTITLE1=Quartet No.1 in D TWV43 D3 - 2. Tendrement
TTITLE2=Quartet No.1 in D TWV43 D3 - 3. Vite
TTITLE3=Quartet No.1 in D TWV43 D3 - 4. Gayement
TTITLE4=Quartet No.1 in D TWV43 D3 - 5. Moderement
TTITLE5=Quartet No.1 in D TWV43 D3 - 6. Vite
TTITLE6=Quartet No.2 in A minor TWV43 a2 - 1. Prelude: Allegrement
TTITLE7=Quartet No.2 in A minor TWV43 a2 - 2. Flatteusement
TTITLE8=Quartet No.2 in A minor TWV43 a2 - 3. Legerement
TTITLE9=Quartet No.2 in A minor TWV43 a2 - 4. Un peu vivement
TTITLE10=Quartet No.2 in A minor TWV43 a2 - 5. Vite
TTITLE11=Quartet No.2 in A minor TWV43 a2 - 6. Coulant
TTITLE12=Quartet No.3 in G TWV43 G4 - 1. Prelude: Un peu vivement
TTITLE13=Quartet No.3 in G TWV43 G4 - 2. Legerement
TTITLE14=Quartet No.3 in G TWV43 G4 - 3. Gracieusement
TTITLE15=Quartet No.3 in G TWV43 G4 - 4. Vite
TTITLE16=Quartet No.3 in G TWV43 G4 - 5. Modere
TTITLE17=Quartet No.3 in G TWV43 G4 - 6. Gai
TTITLE18=Quartet No.3 in G TWV43 G4 - 7. Lentement - Vite - Lentement 
TTITLE18=Vite
EXTD=
EXTT0=
EXTT1=
EXTT2=
EXTT3=
EXTT4=
EXTT5=
EXTT6=
EXTT7=
EXTT8=
EXTT9=
EXTT10=
EXTT11=
EXTT12=
EXTT13=
EXTT14=
EXTT15=
EXTT16=
EXTT17=
EXTT18=
PLAYORDER=
